<mxfile host="Electron" agent="Mozilla/5.0 (Windows NT 10.0; Win64; x64) AppleWebKit/537.36 (KHTML, like Gecko) draw.io/24.7.5 Chrome/126.0.6478.183 Electron/31.3.0 Safari/537.36" version="24.7.5">
  <diagram name="Page-1" id="0bUyxNG9MghZ4DApLWt9">
    <mxGraphModel dx="1050" dy="629" grid="1" gridSize="10" guides="1" tooltips="1" connect="1" arrows="1" fold="1" page="1" pageScale="1" pageWidth="850" pageHeight="1100" math="0" shadow="0">
      <root>
        <mxCell id="0" />
        <mxCell id="1" parent="0" />
        <mxCell id="QlCR963ocjQfyvgyuvyh-7" style="edgeStyle=orthogonalEdgeStyle;rounded=0;orthogonalLoop=1;jettySize=auto;html=1;exitX=1;exitY=0.25;exitDx=0;exitDy=0;entryX=0;entryY=0.5;entryDx=0;entryDy=0;" edge="1" parent="1" source="QlCR963ocjQfyvgyuvyh-1" target="QlCR963ocjQfyvgyuvyh-4">
          <mxGeometry relative="1" as="geometry" />
        </mxCell>
        <mxCell id="QlCR963ocjQfyvgyuvyh-8" style="edgeStyle=orthogonalEdgeStyle;rounded=0;orthogonalLoop=1;jettySize=auto;html=1;exitX=1;exitY=0.75;exitDx=0;exitDy=0;entryX=0;entryY=0.5;entryDx=0;entryDy=0;" edge="1" parent="1" source="QlCR963ocjQfyvgyuvyh-1" target="QlCR963ocjQfyvgyuvyh-5">
          <mxGeometry relative="1" as="geometry" />
        </mxCell>
        <mxCell id="QlCR963ocjQfyvgyuvyh-1" value="&lt;font style=&quot;font-size: 14px;&quot;&gt;Push/Pull API&lt;/font&gt;" style="rounded=1;whiteSpace=wrap;html=1;" vertex="1" parent="1">
          <mxGeometry x="160" y="300" width="100" height="40" as="geometry" />
        </mxCell>
        <mxCell id="QlCR963ocjQfyvgyuvyh-2" value="" style="endArrow=classic;html=1;rounded=0;entryX=0;entryY=0.5;entryDx=0;entryDy=0;" edge="1" parent="1" target="QlCR963ocjQfyvgyuvyh-1">
          <mxGeometry width="50" height="50" relative="1" as="geometry">
            <mxPoint x="50" y="320" as="sourcePoint" />
            <mxPoint x="110" y="320" as="targetPoint" />
          </mxGeometry>
        </mxCell>
        <mxCell id="QlCR963ocjQfyvgyuvyh-3" value="&lt;font style=&quot;font-size: 14px;&quot;&gt;Reddit/Twitter&lt;/font&gt;" style="edgeLabel;html=1;align=center;verticalAlign=middle;resizable=0;points=[];" vertex="1" connectable="0" parent="QlCR963ocjQfyvgyuvyh-2">
          <mxGeometry x="-0.2582" y="-2" relative="1" as="geometry">
            <mxPoint x="9" y="8" as="offset" />
          </mxGeometry>
        </mxCell>
        <mxCell id="QlCR963ocjQfyvgyuvyh-11" style="edgeStyle=orthogonalEdgeStyle;rounded=0;orthogonalLoop=1;jettySize=auto;html=1;exitX=1;exitY=0.25;exitDx=0;exitDy=0;entryX=0;entryY=0.25;entryDx=0;entryDy=0;" edge="1" parent="1" source="QlCR963ocjQfyvgyuvyh-4" target="QlCR963ocjQfyvgyuvyh-9">
          <mxGeometry relative="1" as="geometry" />
        </mxCell>
        <mxCell id="QlCR963ocjQfyvgyuvyh-14" style="edgeStyle=orthogonalEdgeStyle;rounded=0;orthogonalLoop=1;jettySize=auto;html=1;exitX=1;exitY=0.75;exitDx=0;exitDy=0;entryX=0;entryY=0.25;entryDx=0;entryDy=0;" edge="1" parent="1" source="QlCR963ocjQfyvgyuvyh-4" target="QlCR963ocjQfyvgyuvyh-10">
          <mxGeometry relative="1" as="geometry" />
        </mxCell>
        <mxCell id="QlCR963ocjQfyvgyuvyh-4" value="&lt;font style=&quot;font-size: 14px;&quot;&gt;DPO Trained&lt;/font&gt;&lt;div&gt;&lt;font size=&quot;3&quot;&gt;LLaMA3 8B&lt;/font&gt;&lt;/div&gt;" style="rounded=1;whiteSpace=wrap;html=1;" vertex="1" parent="1">
          <mxGeometry x="320" y="230" width="110" height="50" as="geometry" />
        </mxCell>
        <mxCell id="QlCR963ocjQfyvgyuvyh-12" style="edgeStyle=orthogonalEdgeStyle;rounded=0;orthogonalLoop=1;jettySize=auto;html=1;exitX=1;exitY=0.75;exitDx=0;exitDy=0;entryX=0;entryY=0.75;entryDx=0;entryDy=0;" edge="1" parent="1" source="QlCR963ocjQfyvgyuvyh-5" target="QlCR963ocjQfyvgyuvyh-10">
          <mxGeometry relative="1" as="geometry" />
        </mxCell>
        <mxCell id="QlCR963ocjQfyvgyuvyh-15" style="edgeStyle=orthogonalEdgeStyle;rounded=0;orthogonalLoop=1;jettySize=auto;html=1;exitX=1;exitY=0.25;exitDx=0;exitDy=0;entryX=0;entryY=0.75;entryDx=0;entryDy=0;" edge="1" parent="1" source="QlCR963ocjQfyvgyuvyh-5" target="QlCR963ocjQfyvgyuvyh-9">
          <mxGeometry relative="1" as="geometry">
            <Array as="points">
              <mxPoint x="450" y="373" />
              <mxPoint x="450" y="275" />
            </Array>
          </mxGeometry>
        </mxCell>
        <mxCell id="QlCR963ocjQfyvgyuvyh-5" value="&lt;span style=&quot;font-size: 14px;&quot;&gt;GPT-4&lt;/span&gt;" style="rounded=1;whiteSpace=wrap;html=1;" vertex="1" parent="1">
          <mxGeometry x="320" y="360" width="110" height="50" as="geometry" />
        </mxCell>
        <mxCell id="QlCR963ocjQfyvgyuvyh-17" style="edgeStyle=orthogonalEdgeStyle;rounded=0;orthogonalLoop=1;jettySize=auto;html=1;exitX=1;exitY=0.5;exitDx=0;exitDy=0;entryX=0;entryY=0.25;entryDx=0;entryDy=0;" edge="1" parent="1" source="QlCR963ocjQfyvgyuvyh-9" target="QlCR963ocjQfyvgyuvyh-16">
          <mxGeometry relative="1" as="geometry" />
        </mxCell>
        <mxCell id="QlCR963ocjQfyvgyuvyh-9" value="&lt;font style=&quot;font-size: 14px;&quot;&gt;Creativity, Directedness, Perspective Change, Affirmations&lt;/font&gt;" style="rounded=1;whiteSpace=wrap;html=1;" vertex="1" parent="1">
          <mxGeometry x="496" y="225" width="160" height="67" as="geometry" />
        </mxCell>
        <mxCell id="QlCR963ocjQfyvgyuvyh-18" style="edgeStyle=orthogonalEdgeStyle;rounded=0;orthogonalLoop=1;jettySize=auto;html=1;exitX=1;exitY=0.5;exitDx=0;exitDy=0;entryX=0;entryY=0.75;entryDx=0;entryDy=0;" edge="1" parent="1" source="QlCR963ocjQfyvgyuvyh-10" target="QlCR963ocjQfyvgyuvyh-16">
          <mxGeometry relative="1" as="geometry" />
        </mxCell>
        <mxCell id="QlCR963ocjQfyvgyuvyh-10" value="&lt;font style=&quot;font-size: 14px;&quot;&gt;Sensitivity, Empathy&lt;/font&gt;" style="rounded=1;whiteSpace=wrap;html=1;" vertex="1" parent="1">
          <mxGeometry x="503" y="363.5" width="150" height="45" as="geometry" />
        </mxCell>
        <mxCell id="QlCR963ocjQfyvgyuvyh-16" value="&lt;font style=&quot;font-size: 14px;&quot;&gt;Evaluation Comparison&lt;/font&gt;" style="rounded=1;whiteSpace=wrap;html=1;" vertex="1" parent="1">
          <mxGeometry x="710" y="300" width="100" height="40" as="geometry" />
        </mxCell>
      </root>
    </mxGraphModel>
  </diagram>
</mxfile>
